<?xml version="1.0" encoding="UTF-8" standalone="no"?>
<!-- Created with Inkscape (http://www.inkscape.org/) -->

<svg
   xmlns:dc="http://purl.org/dc/elements/1.1/"
   xmlns:cc="http://creativecommons.org/ns#"
   xmlns:rdf="http://www.w3.org/1999/02/22-rdf-syntax-ns#"
   xmlns:svg="http://www.w3.org/2000/svg"
   xmlns="http://www.w3.org/2000/svg"
   xmlns:sodipodi="http://sodipodi.sourceforge.net/DTD/sodipodi-0.dtd"
   xmlns:inkscape="http://www.inkscape.org/namespaces/inkscape"
   width="128"
   height="128"
   viewBox="0 0 128 128"
   id="svg2"
   version="1.1"
   inkscape:version="0.91 r13725"
   sodipodi:docname="logo.svg"
   inkscape:export-filename="C:\Users\Puranjay\Documents\gulp-pipemaker\src\images\logo-favicon.png"
   inkscape:export-xdpi="217.96875"
   inkscape:export-ydpi="217.96875">
  <defs
     id="defs4" />
  <sodipodi:namedview
     id="base"
     pagecolor="#ffffff"
     bordercolor="#666666"
     borderopacity="1.0"
     inkscape:pageopacity="0.0"
     inkscape:pageshadow="2"
     inkscape:zoom="2.8284271"
     inkscape:cx="-4.7401828"
     inkscape:cy="59.942508"
     inkscape:document-units="px"
     inkscape:current-layer="g4191"
     showgrid="false"
     showguides="false"
     inkscape:window-width="1366"
     inkscape:window-height="705"
     inkscape:window-x="-8"
     inkscape:window-y="-8"
     inkscape:window-maximized="1"
     units="px" />
  <metadata
     id="metadata7">
    <rdf:RDF>
      <cc:Work
         rdf:about="">
        <dc:format>image/svg+xml</dc:format>
        <dc:type
           rdf:resource="http://purl.org/dc/dcmitype/StillImage" />
        <dc:title />
      </cc:Work>
    </rdf:RDF>
  </metadata>
  <g
     inkscape:label="Layer 1"
     inkscape:groupmode="layer"
     id="layer1"
     style="display:inline"
     transform="translate(0,-924.36216)" />
  <g
     inkscape:groupmode="layer"
     id="layer2"
     inkscape:label="Layer 2"
     transform="translate(0,-924.36216)">
    <g
       id="g4191">
      <g
         id="g4142"
         transform="translate(-0.85841186,-0.04215515)">
        <path
           style="fill:#fd2368;fill-opacity:1;fill-rule:evenodd;stroke:none;stroke-width:1px;stroke-linecap:butt;stroke-linejoin:miter;stroke-opacity:1"
           d="m 68.702017,999.62159 8.973555,-5.09084 -0.685216,-45.00399 c 0,0 -0.972953,-3.21832 -3.398479,-3.22815 -2.425533,-0.01 -18.240612,-0.11341 -18.240612,-0.11341 0,0 -4.245667,1.44208 -4.236496,4.04517 0.0092,2.60308 0.547052,10.9863 0.547052,10.9863 0,0 1.546909,2.70792 2.453691,2.79048 0.906795,0.0826 14.099787,0.0177 14.099787,0.0177 l -0.02294,5.65958 -2.95821,0.0472 c 0,0 -1.85157,-0.52023 -0.364941,2.46354 1.486622,2.98375 3.803375,10.36846 3.803375,10.36846 z"
           id="path4148"
           inkscape:connector-curvature="0" />
        <path
           sodipodi:nodetypes="ccccc"
           style="fill:#fd2368;fill-opacity:1;fill-rule:evenodd;stroke:none;stroke-width:1px;stroke-linecap:butt;stroke-linejoin:miter;stroke-opacity:1"
           d="m 55.727724,978.24374 6.80569,0.12476 0.432922,-10.58121 -7.335193,0.0964 z"
           id="path4150"
           inkscape:connector-curvature="0" />
        <path
           style="fill:#fe2269;fill-opacity:1;fill-rule:evenodd;stroke:none;stroke-width:1px;stroke-linecap:butt;stroke-linejoin:miter;stroke-opacity:1"
           d="m 55.982216,946.20749 c 0,0 -1.672014,-15.62508 2.189698,-14.78119 3.861714,0.84391 3.607488,5.1813 3.607488,5.1813 l 0.334779,9.84167 -6.449077,0.15133 0.393111,0.31711"
           id="path4152"
           inkscape:connector-curvature="0" />
        <path
           style="fill:#64344a;fill-opacity:1;fill-rule:evenodd;stroke:none;stroke-width:1px;stroke-linecap:butt;stroke-linejoin:miter;stroke-opacity:1"
           d="m 56.289618,941.40196 19.414733,-0.8619 -0.283635,2.49669 c 0,0 -1.699873,2.8873 -2.58052,3.19897 -0.880632,0.31167 -14.843921,0.46083 -14.843921,0.46083 0,0 -1.597056,-2.31035 -2.192947,-3.13171 -0.59587,-0.82137 0.48629,-2.16288 0.48629,-2.16288 z"
           id="path4161"
           inkscape:connector-curvature="0" />
        <path
           style="fill:#64344a;fill-opacity:1;fill-rule:evenodd;stroke:none;stroke-width:1px;stroke-linecap:butt;stroke-linejoin:miter;stroke-opacity:1"
           d="m 55.824106,935.96416 19.667996,-0.10215 -0.172266,-2.48766 c 0,0 -1.591811,-2.80861 -2.471312,-3.07711 -0.879494,-0.26849 -15.046728,0.27666 -15.046728,0.27666 0,0 -1.728195,2.39449 -2.371128,3.24718 -0.642888,0.85271 0.393432,2.14308 0.393432,2.14308 z"
           id="path4161-6"
           inkscape:connector-curvature="0" />
        <rect
           style="fill:#64344a;fill-opacity:1;stroke:none;stroke-width:1;stroke-linejoin:round;stroke-miterlimit:4;stroke-dasharray:none;stroke-opacity:1"
           id="rect4178"
           width="9.4701805"
           height="4.0406103"
           x="56.134335"
           y="963.81451"
           transform="matrix(0.99999837,0.00180332,-0.00180332,0.99999837,0,0)" />
        <path
           style="fill:#663349;fill-opacity:1;fill-rule:evenodd;stroke:none;stroke-width:1px;stroke-linecap:butt;stroke-linejoin:miter;stroke-opacity:1"
           d="m 68.824143,1038.0157 0.546049,5.9472 c 0,0 0.719392,2.5271 3.243205,2.6162 2.523806,0.089 5.499414,-0.7115 5.902363,-2.8199 0.169826,-0.8886 0.04402,-9.1001 0.0012,-19.8143 -0.05872,-14.7075 -0.220959,-31.67155 -0.220959,-31.67155 l -10.419572,6.6823 0.945985,39.04955 c 0.01509,-0.1669 0.01159,0.1906 0.0018,0.01 z"
           id="path4189"
           inkscape:connector-curvature="0"
           sodipodi:nodetypes="ccsssccccc" />
      </g>
    </g>
  </g>
</svg>
